<?xml version="1.0" encoding="utf-8"?>
<!-- Generator: Adobe Illustrator 19.1.1, SVG Export Plug-In . SVG Version: 6.00 Build 0)  -->
<svg version="1.1" id="_x31_0" xmlns="http://www.w3.org/2000/svg" xmlns:xlink="http://www.w3.org/1999/xlink" x="0px" y="0px"
	 viewBox="0 0 512 512" style="enable-background:new 0 0 512 512;" xml:space="preserve">
<style type="text/css">
	.st0{fill:#374149;}
</style>
<g>
	<path class="st0" d="M159.355,183.867c7.145,0.207,14.274-0.058,21.406-0.418c5.145-0.266,10.278-0.723,15.41-0.891
		c3.61-0.109,5.66,2.332,5.05,5.594c-0.434,2.258-1.847,3.481-4.758,3.774c-3.805,0.387-7.617,0.707-11.434,0.942
		c-1.328,0.082-1.621,0.457-1.137,1.75c1.094,2.871,41.102,118.879,42.672,123.348c2.664-7.782,19.477-56.848,25.383-74.133
		c0.281-0.805,0.586-1.527,0.21-2.508c-5.91-15.582-11.777-31.156-17.59-46.766c-0.473-1.289-1.121-1.625-2.371-1.718
		c-3.801-0.29-7.645-0.402-11.39-1.18c-3.012-0.61-4.398-3.371-3.246-6.199c0.859-2.168,2.512-3.082,5.59-2.93
		c7.422,0.39,14.829,0.89,22.25,1.207c12.734,0.554,25.442-0.317,38.148-1.164c1.387-0.098,2.805-0.25,4.122,0.402
		c2.011,0.984,2.789,2.675,2.442,5.144c-0.294,1.985-1.817,3.458-4.301,3.734c-3.786,0.43-7.602,0.762-11.418,0.969
		c-0.492,0.027-0.664,0.184-0.938,0.297c-0.004,0.004-0.011,0.004-0.015,0.008c-0.61,0.258-0.883,0.699-0.5,1.766
		c1.398,3.856,40.226,116.398,42.156,121.875c0.043-0.086,0.062-0.121,0.102-0.195c0.012,0.039,0.039,0.109,0.047,0.141l0.086-0.391
		c0.137-0.262,0.246-0.461,0.293-0.633c5.786-18.801,11.637-37.566,17.286-56.406c1.507-5.046,2.73-10.222,3.023-15.55
		c0.75-13.094-3.774-24.621-10.504-35.512c-3.816-6.172-7.934-12.179-9.902-19.308c-2.832-10.266,1.332-20.172,10.57-25.028
		c2.664-1.394,5.602-1.636,8.973-2.035l0.621,0.039l-0.121-0.098c0.074-0.011,0.145-0.015,0.222-0.027
		c-3.48-2.73-6.492-5.258-9.668-7.558c-11.234-8.118-23.554-14.122-36.871-17.828c-14.484-4.035-29.27-5.535-44.308-4.09
		c-17.129,1.637-33.207,6.535-48.207,15.024c-15.383,8.726-28.226,20.222-38.394,34.706c-0.332,0.469-1.027,0.902-0.766,1.485
		C157.898,184.254,158.758,183.836,159.355,183.867z"/>
	<path class="st0" d="M315.68,346.68c27.328-15.813,44.378-38.77,52.699-63.27c0.14-0.391,0.262-0.794,0.39-1.192
		c8.68-26.523,7.168-54.742-2.566-77.562c-0.508-1.191-1.203-2.254-1.758-3.414c-1.313-2.793-2.688-5.551-4.078-8.246l0.019,0.359
		c-0.066-0.113-0.113-0.242-0.179-0.351c0.054,1.058,0.086,1.93,0.156,2.805c1.066,11.554,1.066,20.91-3.375,34.027
		C352.133,244.187,317.469,341.59,315.68,346.68z"/>
	<path class="st0" d="M144.191,284.977c10.645,29.606,33.031,53.797,59.68,65.394c-0.27-1.606-42.836-115.274-53.668-143.402
		c-1.434-3.809-2.282-6.062-2.34-6.211c-0.023,0.047-0.035,0.094-0.058,0.141c-0.023-0.058-0.078-0.187-0.09-0.207
		c-1.563,3.438-2.938,6.906-4.106,10.359c-8.821,25.641-7.543,51.317,0.554,73.844C144.18,284.922,144.18,284.95,144.191,284.977z"
		/>
	<path class="st0" d="M258.375,257.942c-0.18,0.015-0.348,0.027-0.512,0.042c-0.336,0.887-0.683,1.774-0.988,2.665
		c-5.23,14.882-10.446,29.754-15.703,44.625c-6.004,17.019-12.027,34.027-18.102,51.019c-0.418,1.195-0.234,1.68,1,2.012
		c7.613,2.054,15.382,3.41,23.207,3.926c9.656,0.641,19.175,0.086,28.582-1.48c0.02-0.004,0.043-0.008,0.066-0.012
		c3.188-0.531,6.367-1.149,9.524-1.95c3.21-0.789,6.378-1.703,9.492-2.746l-0.004-0.008c0.05-0.019,0.106-0.027,0.156-0.047
		C282.844,323.278,270.61,290.61,258.375,257.942z"/>
	<path class="st0" d="M465.602,8H46.398C20.801,8,0,28.801,0,54.481v403.117C0,483.278,20.801,504,46.398,504h419.203
		C491.199,504,512,483.278,512,457.598V54.481C512,28.801,491.199,8,465.602,8z M327.519,58.398
		c0-11.598,9.442-21.039,21.039-21.039c11.524,0,20.961,9.442,20.961,21.039c0,11.519-9.437,20.961-20.961,20.961
		C336.961,79.359,327.519,69.918,327.519,58.398z M397.519,58.398c0-11.598,9.442-21.039,21.039-21.039
		c11.524,0,20.961,9.442,20.961,21.039c0,11.519-9.437,20.961-20.961,20.961C406.961,79.359,397.519,69.918,397.519,58.398z
		 M464,456H48V104h416V456z"/>
	<path class="st0" d="M332.488,389.824H179.512c-4,0-7.25,3.25-7.25,7.25v21.5c0,3.996,3.25,7.25,7.25,7.25h152.976
		c4,0,7.25-3.254,7.25-7.25v-21.5C339.738,393.074,336.488,389.824,332.488,389.824z M331.738,417.824H222.598v-20h109.141V417.824z
		"/>
</g>
</svg>
